<svg preserveAspectRatio="xMidYMid meet" data-bbox="2.45 25.709 195.306 148.791" xmlns="http://www.w3.org/2000/svg" viewBox="2.45 25.709 195.306 148.791" role="presentation" aria-hidden="true">
    <g>
        <path d="M103.1 138.2v-8.7c6.8-.6 11.5-2.5 14.4-5.8 2.8-3.3 4.2-6.9 4.2-10.7 0-8.9-6.2-14.5-18.6-16.7V77c5.9.4 9.7 3 11.3 7.9l6.1-2c-2.8-7.1-8.6-11.1-17.4-11.9v-7.4h-5.5V71c-11.2 1.9-16.7 7.1-16.7 15.8 0 3.3 1 6.3 3.1 9s6.6 4.9 13.6 6.6v20.9c-6.5-.5-10.8-4-13.2-10.3l-6.1 2.4c2.8 8.3 9.2 13 19.3 14.1v8.7h5.5zm0-34.5c7.7 1.1 11.6 4.4 11.6 9.9 0 2.6-1 4.8-3.1 6.7-2 1.9-4.9 2.9-8.5 3v-19.6zM87.5 86.1c0-2.5.9-4.6 2.8-6.3 1.8-1.7 4.3-2.6 7.4-2.8v18.5c-6.8-1.3-10.2-4.4-10.2-9.4z"></path>
        <path d="M57.8 86.3c-1.4-1.1-3.4-1-4.5.4l-22.6 27c-2.8-16 .3-32.4 8.9-46.7 10-16.7 26.4-28.8 45-33.2 24.4-5.7 49.9 2.4 66.6 21.3 1.2 1.3 3.2 1.4 4.5.3 1.3-1.2 1.4-3.2.3-4.5-18.2-20.6-46.1-29.5-72.8-23.2-20.2 4.7-38.1 17.9-49 36.1-8 13.4-11.6 28.4-10.6 43.4L8.3 84.3c-1-1.5-3-1.9-4.4-.9-1.5 1-1.9 2.9-.9 4.4l23.3 34.8c.6.8 1.5 1.4 2.5 1.4h.2c.9 0 1.8-.4 2.4-1.1l26.9-32.1c1.1-1.3.9-3.3-.5-4.5z"></path>
        <path d="M197.2 120.7l-23.1-34.5c0-.1-.1-.1-.1-.2l-.1-.1c-.1-.2-.3-.2-.4-.4-.1-.1-.2-.3-.4-.4-.5-.4-1.1-.7-1.7-.7-1 0-2 .4-2.6 1.1L142 117.7c-1.1 1.3-1 3.4.4 4.5 1.3 1.1 3.3 1 4.5-.4l22.3-26.6c2.3 31.8-20.9 63.4-53.5 71.1-22.9 5.4-46.6-1.3-63.4-17.9-1.2-1.2-3.3-1.2-4.5 0-1.2 1.2-1.2 3.3 0 4.5 14.2 14 32.9 21.6 52.2 21.6 5.7 0 11.4-.7 17.1-2 33.8-7.9 58.3-39.5 58.6-72.5l16.3 24.3c.6.9 1.6 1.4 2.6 1.4.6 0 1.2-.2 1.8-.5 1.4-1.1 1.8-3.1.8-4.5z"></path>
    </g>
</svg>