<svg aria-hidden="true" style="position: absolute; width: 0; height: 0; overflow: hidden;" version="1.1" xmlns="http://www.w3.org/2000/svg" xmlns:xlink="http://www.w3.org/1999/xlink">
<defs>
    <symbol id="icon-instagram" viewBox="0 0 32 32">
        <path d="M31.969 9.408c-0.075-1.7-0.35-2.869-0.744-3.882-0.406-1.075-1.032-2.038-1.851-2.838-0.8-0.813-1.769-1.444-2.832-1.844-1.019-0.394-2.182-0.669-3.882-0.744-1.713-0.081-2.257-0.1-6.601-0.1s-4.888 0.019-6.595 0.094c-1.7 0.075-2.869 0.35-3.882 0.744-1.075 0.406-2.038 1.031-2.838 1.85-0.813 0.8-1.444 1.769-1.844 2.832-0.394 1.019-0.669 2.182-0.744 3.882-0.081 1.713-0.1 2.257-0.1 6.601s0.019 4.888 0.094 6.595c0.075 1.7 0.35 2.869 0.744 3.882 0.406 1.075 1.038 2.038 1.85 2.838 0.8 0.813 1.769 1.444 2.832 1.844 1.019 0.394 2.182 0.669 3.882 0.744 1.706 0.075 2.25 0.094 6.595 0.094s4.888-0.019 6.595-0.094c1.7-0.075 2.869-0.35 3.882-0.744 2.151-0.832 3.851-2.532 4.682-4.682 0.394-1.019 0.669-2.182 0.744-3.882 0.075-1.707 0.094-2.251 0.094-6.595s-0.006-4.888-0.081-6.595zM29.087 22.473c-0.069 1.563-0.331 2.407-0.55 2.969-0.538 1.394-1.644 2.5-3.038 3.038-0.563 0.219-1.413 0.481-2.969 0.55-1.688 0.075-2.194 0.094-6.464 0.094s-4.782-0.019-6.464-0.094c-1.563-0.069-2.407-0.331-2.969-0.55-0.694-0.256-1.325-0.663-1.838-1.194-0.531-0.519-0.938-1.144-1.194-1.838-0.219-0.563-0.481-1.413-0.55-2.969-0.075-1.688-0.094-2.194-0.094-6.464s0.019-4.782 0.094-6.464c0.069-1.563 0.331-2.407 0.55-2.969 0.256-0.694 0.663-1.325 1.2-1.838 0.519-0.531 1.144-0.938 1.838-1.194 0.563-0.219 1.413-0.481 2.969-0.55 1.688-0.075 2.194-0.094 6.464-0.094 4.276 0 4.782 0.019 6.464 0.094 1.563 0.069 2.407 0.331 2.969 0.55 0.694 0.256 1.325 0.662 1.838 1.194 0.531 0.519 0.938 1.144 1.194 1.838 0.219 0.563 0.481 1.413 0.55 2.969 0.075 1.688 0.094 2.194 0.094 6.464s-0.019 4.77-0.094 6.458z"></path>
        <path d="M16.059 7.783c-4.538 0-8.22 3.682-8.22 8.22s3.682 8.22 8.22 8.22c4.538 0 8.22-3.682 8.22-8.22s-3.682-8.22-8.22-8.22zM16.059 21.335c-2.944 0-5.332-2.388-5.332-5.332s2.388-5.332 5.332-5.332c2.944 0 5.332 2.388 5.332 5.332s-2.388 5.332-5.332 5.332z"></path>
        <path d="M26.524 7.458c0 1.060-0.859 1.919-1.919 1.919s-1.919-0.859-1.919-1.919c0-1.060 0.859-1.919 1.919-1.919s1.919 0.859 1.919 1.919z"></path>
    </symbol>

    <symbol id="icon-shield" viewBox="0 0 27 32">
        <path d="M13.803 32c-0.12 0-0.24-0.020-0.34-0.060-0.14-0.060-3.501-1.26-6.822-5.201-5.501-6.441-6.641-15.143-6.641-21.305 0-0.56 0.46-1.040 1.040-1.040 2.361 0 7.042-0.54 11.783-4.181 0.4-0.3 0.96-0.28 1.32 0.040 3.841 3.401 9.682 4.141 11.603 4.141 0.58 0 1.040 0.46 1.040 1.040 0 10.662-3.361 17.264-6.181 20.925-3.101 4.021-6.241 5.481-6.361 5.541-0.14 0.060-0.3 0.1-0.44 0.1zM2.1 6.454c0.16 7.822 2.24 14.303 6.041 18.844 2.341 2.781 4.701 4.081 5.621 4.501 0.88-0.5 3.081-1.94 5.281-4.821 2.501-3.281 5.461-9.142 5.661-18.544-2.601-0.22-7.562-1.18-11.282-4.081-4.381 3.141-8.642 3.941-11.322 4.101z"></path>
    </symbol>

    <symbol id="icon-pen" viewBox="0 0 32 32">
        <path fill="#e98866" style="fill: var(--color1, #e98866)" d="M25.306 29.783h-13.118c-0.578 0-1.047 0.472-1.047 1.055s0.468 1.055 1.047 1.055h13.118c0.578 0 1.047-0.472 1.047-1.055s-0.468-1.055-1.047-1.055z"></path>
        <path d="M16.637 4.521h-0.192v-3.466c0-0.583-0.468-1.055-1.047-1.055h-6.039c-0.578 0-1.047 0.472-1.047 1.055v3.466h-2.037c-0.347 0.001-0.628 0.283-0.628 0.631 0 0.001 0 0.002 0 0.002v-0 8.315c0 0.35 0.281 0.633 0.628 0.633s0.628-0.283 0.628-0.633v-7.683h1.41v19.252c0 0.164 0.038 0.326 0.111 0.472l2.935 5.907c0.173 0.344 0.52 0.577 0.923 0.583h0.013c0.4-0.001 0.747-0.225 0.922-0.555l0.003-0.006 3.105-5.907c0.077-0.143 0.122-0.313 0.122-0.493 0-0 0-0 0-0v0-19.252h0.192c0.347-0.001 0.628-0.283 0.628-0.631 0-0.001 0-0.002 0-0.002v0c0-0.001 0-0.001 0-0.002 0-0.348-0.281-0.629-0.628-0.631h-0zM10.406 2.11h3.946v2.411h-3.946v-2.411zM14.352 5.786v18.336h-3.946v-18.336h3.946zM12.32 28.642l-1.617-3.254h3.327l-1.71 3.254z"></path>
    </symbol>

    <symbol id="icon-bus" viewBox="0 0 57 32">
        <path d="M48.286 4.857h-6.657v-4.857h-31.657v6.943h-9.971v2.029h12v-6.943h27.6v24.086h-14.914c-0.629-1.771-2.286-3.143-4.314-3.143s-3.686 1.286-4.314 3.143h-4.057v-2.829h-2.029v4.857h5.914c0.314 2.2 2.229 3.857 4.486 3.857 2.286 0 4.2-1.657 4.486-3.857h18.514c0.314 2.2 2.229 3.857 4.486 3.857 2.286 0 4.2-1.657 4.486-3.857h4.8v-13.343c-0.171-6.029-3.571-9.943-8.857-9.943zM20.314 30.029c-1.343 0-2.457-1.114-2.457-2.457s1.114-2.457 2.457-2.457c1.343 0 2.457 1.114 2.457 2.457 0 1.371-1.086 2.457-2.457 2.457zM47.771 30.029c-1.343 0-2.457-1.114-2.457-2.457s1.114-2.457 2.457-2.457c1.343 0 2.457 1.114 2.457 2.457 0.029 1.371-1.086 2.457-2.457 2.457zM54.914 26.171h-2.829c-0.629-1.771-2.286-3.143-4.314-3.143-1.971 0-3.686 1.286-4.314 3.143h-1.914v-19.286h6.657c4.114 0 6.657 3.057 6.657 7.971v11.314h0.057zM10.229 15.114h-8.686v-2.029h8.371v-2.086h2.029v4.114h-1.714zM10.229 21.257h-7.2v-2.029h6.886v-2.086h2.029v4.114h-1.714z"></path>
    </symbol>

    <symbol id="icon-cash_back" viewBox="0 0 42 32">
        <path d="M21.646 24.193v-1.871c1.462-0.129 2.473-0.538 3.097-1.247 0.602-0.71 0.903-1.484 0.903-2.301 0-1.914-1.333-3.118-4-3.592v-4.151c1.269 0.086 2.086 0.645 2.43 1.699l1.312-0.43c-0.602-1.527-1.85-2.387-3.742-2.559v-1.591h-1.183v1.591c-2.409 0.409-3.592 1.527-3.592 3.398 0 0.71 0.215 1.355 0.667 1.936s1.419 1.054 2.925 1.419v4.495c-1.398-0.108-2.323-0.86-2.839-2.215l-1.312 0.516c0.602 1.785 1.979 2.796 4.151 3.032v1.871h1.183zM21.646 16.773c1.656 0.237 2.495 0.946 2.495 2.129 0 0.559-0.215 1.032-0.667 1.441-0.43 0.409-1.054 0.624-1.828 0.645v-4.215zM18.291 12.988c0-0.538 0.194-0.989 0.602-1.355 0.387-0.366 0.925-0.559 1.591-0.602v3.979c-1.462-0.28-2.194-0.946-2.194-2.022z"></path>
        <path d="M11.904 13.031c-0.301-0.237-0.731-0.215-0.968 0.086l-4.861 5.807c-0.602-3.441 0.065-6.968 1.914-10.044 2.151-3.592 5.678-6.194 9.678-7.14 5.248-1.226 10.732 0.516 14.323 4.581 0.258 0.28 0.688 0.301 0.968 0.065 0.28-0.258 0.301-0.688 0.065-0.968-3.914-4.43-9.915-6.344-15.657-4.99-4.344 1.011-8.194 3.85-10.538 7.764-1.721 2.882-2.495 6.108-2.28 9.334l-3.291-4.925c-0.215-0.323-0.645-0.409-0.946-0.194-0.323 0.215-0.409 0.624-0.194 0.946l5.011 7.484c0.129 0.172 0.323 0.301 0.538 0.301h0.043c0.194 0 0.387-0.086 0.516-0.237l5.785-6.904c0.237-0.28 0.194-0.71-0.108-0.968z"></path>
        <path d="M41.884 20.429l-4.968-7.42c0-0.021-0.022-0.021-0.022-0.043l-0.022-0.021c-0.022-0.043-0.065-0.043-0.086-0.086-0.022-0.021-0.043-0.065-0.086-0.086-0.108-0.086-0.237-0.151-0.366-0.151-0.215 0-0.43 0.086-0.559 0.237l-5.764 6.925c-0.237 0.28-0.215 0.731 0.086 0.968 0.28 0.237 0.71 0.215 0.968-0.086l4.796-5.721c0.495 6.839-4.495 13.635-11.506 15.291-4.925 1.161-10.022-0.28-13.635-3.85-0.258-0.258-0.71-0.258-0.968 0s-0.258 0.71 0 0.968c3.054 3.011 7.076 4.645 11.227 4.645 1.226 0 2.452-0.151 3.678-0.43 7.269-1.699 12.538-8.495 12.603-15.592l3.506 5.226c0.129 0.194 0.344 0.301 0.559 0.301 0.129 0 0.258-0.043 0.387-0.108 0.301-0.237 0.387-0.667 0.172-0.968z"></path>
    </symbol>



</defs>
</svg>
